<?xml version="1.0" encoding="utf-8"?>
<!-- Generator: Adobe Illustrator 16.0.0, SVG Export Plug-In . SVG Version: 6.00 Build 0)  -->
<!DOCTYPE svg PUBLIC "-//W3C//DTD SVG 1.1//EN" "http://www.w3.org/Graphics/SVG/1.1/DTD/svg11.dtd">
<svg version="1.1" id="Layer_1" xmlns="http://www.w3.org/2000/svg" xmlns:xlink="http://www.w3.org/1999/xlink" x="0px" y="0px"
	 width="398px" height="55px" viewBox="98.14 393.445 398 55" enable-background="new 98.14 393.445 398 55" xml:space="preserve">
<g id="Layer_1_1_">
	<g>
		<path stroke="#FFFFFF" stroke-miterlimit="10" d="M102.035,446.945v-37.264l11.503-1.422v6.16
			c0.941-1.816,2.351-3.258,4.232-4.324c1.821-1.065,3.78-1.599,5.878-1.599c0.633,0,1.227,0.02,1.781,0.06
			c0.515,0.079,0.871,0.148,1.069,0.208l-3.682,11.58c-0.079-0.04-0.277-0.099-0.594-0.179c-0.317-0.04-0.752-0.06-1.306-0.06
			c-0.752,0-1.584,0.119-2.494,0.356c-1.663,0.477-2.751,1.368-3.266,2.674c-0.515,1.35-0.822,3.111-0.923,5.291
			c0.081,0.396,0.121,1.031,0.121,1.902v15.455L102.035,446.945z"/>
		<path stroke="#FFFFFF" stroke-miterlimit="10" d="M127.53,427.878c0-0.078,0-0.158,0-0.236c0-3.172,0.732-6.184,2.197-9.039
			c1.504-2.893,3.592-5.261,6.265-7.104c2.672-1.882,5.67-3.002,8.996-3.359c0.832-0.079,1.663-0.118,2.494-0.118
			c2.217,0,4.335,0.369,6.354,1.107c2.613,1.078,4.71,2.366,6.294,3.863c1.583,1.558,2.741,2.935,3.474,4.133
			c0.732,1.198,1.217,2.077,1.455,2.635l-23.395,14.556c0.316,0.393,1.069,0.873,2.256,1.441c0.97,0.49,2.365,0.734,4.186,0.734
			c0.257,0,0.524,0,0.802,0c1.306-0.117,2.613-0.461,3.919-1.029c1.306-0.549,2.424-1.156,3.355-1.822
			c0.93-0.627,1.396-0.98,1.396-1.059l5.849,8.896c-0.535,0.398-1.475,1.016-2.821,1.852c-1.346,0.816-3.127,1.652-5.344,2.508
			c-2.276,0.855-4.661,1.303-7.155,1.342c-0.099,0-0.188,0-0.267,0c-3.642,0-6.987-0.83-10.035-2.49
			c-3.167-1.66-5.661-3.969-7.482-6.924C128.499,434.812,127.569,431.517,127.53,427.878z M138.307,427.408l13.331-8.264
			c-0.277-0.215-0.792-0.46-1.544-0.734c-0.772-0.274-1.722-0.412-2.85-0.412c-2.514,0-4.622,0.941-6.324,2.823
			C139.178,422.742,138.307,424.937,138.307,427.408z"/>
		<path stroke="#FFFFFF" stroke-miterlimit="10" d="M273.924,428.283c0-0.08,0-0.158,0-0.238c0-3.416,0.792-6.633,2.377-9.654
			c1.604-3.099,3.853-5.582,6.745-7.449c2.833-1.867,6.022-2.802,9.569-2.802c4.288,0,7.687,1.281,10.196,3.845v-15.125
			l11.399-1.425v50.353l-11.045,1.1v-3.463c-0.711,0.73-1.896,1.539-3.557,2.428c-1.699,0.908-3.833,1.402-6.402,1.48
			c-0.158,0-0.316,0-0.474,0c-3.25,0-6.251-0.789-9.004-2.365c-2.932-1.656-5.29-3.982-7.073-6.98
			C274.875,434.986,273.964,431.751,273.924,428.283z M285.206,427.75c0,2.324,0.75,4.295,2.252,5.91
			c1.66,1.891,3.616,2.943,5.868,3.162c0.276,0.039,0.563,0.059,0.859,0.059c0.04,0,0.069,0,0.09,0c2.166,0,4.116-0.699,5.85-2.098
			c1.932-1.537,3.015-3.545,3.252-6.027c0.039-0.275,0.059-0.551,0.059-0.828c0-1.377-0.296-2.707-0.887-3.986
			c-0.748-1.557-1.842-2.828-3.279-3.813c-1.398-0.985-2.944-1.497-4.638-1.536c-0.04,0-0.08,0-0.119,0
			c-2.331,0-4.406,0.788-6.224,2.363c-1.857,1.615-2.865,3.537-3.023,5.761C285.226,427.07,285.206,427.416,285.206,427.75z"/>
		<path stroke="#FFFFFF" stroke-miterlimit="10" d="M320.291,441.986l5.908-7.746c0.652,0.688,1.75,1.512,3.295,2.473
			c1.504,0.963,3.227,1.443,5.166,1.443c0.078,0,0.158,0,0.236,0c1.387,0,2.582-0.275,3.594-0.824
			c0.85-0.471,1.275-1.119,1.275-1.943c0-0.078,0-0.176,0-0.295c-0.119-0.9-0.523-1.49-1.217-1.766
			c-0.693-0.234-2.107-0.568-4.246-1c-2.178-0.393-4.049-0.922-5.611-1.59c-4.57-2-6.857-5.416-6.857-10.244
			c0-2.296,0.643-4.385,1.93-6.268c1.268-1.841,2.949-3.296,5.047-4.365c2.039-1.069,4.266-1.644,6.682-1.723
			c0.314,0,0.643,0,0.979,0c3.166,0,6.066,0.735,8.699,2.204c2.889,1.668,4.492,2.851,4.809,3.544l-7.125,6.372
			c0-0.079-0.139-0.274-0.416-0.589c-0.314-0.273-0.662-0.56-1.037-0.854c-0.357-0.274-0.883-0.561-1.574-0.854
			c-0.732-0.273-1.543-0.412-2.436-0.412c-1.146,0-2.137,0.216-2.969,0.648c-0.91,0.471-1.385,1.158-1.424,2.06
			c0,0.04,0,0.079,0,0.118c0,0.51,0.404,0.972,1.217,1.383c0.812,0.412,1.869,0.736,3.176,0.973c1.309,0.234,2.645,0.471,4.01,0.707
			c2.314,0.432,4.502,1.52,6.561,3.266c1.98,1.748,2.969,4.504,2.969,8.271c0,0.08,0,0.16,0,0.24
			c-0.039,2.318-0.781,4.447-2.227,6.385c-1.523,1.898-3.473,3.389-5.848,4.467c-2.297,1-4.75,1.5-7.363,1.5
			c-0.197,0-0.396,0-0.594,0c-3.404-0.121-6.531-0.926-9.383-2.414C322.666,443.707,320.921,442.65,320.291,441.986z"/>
		<path stroke="#FFFFFF" stroke-miterlimit="10" d="M354.277,420.016l2.938-10.45h3.562v-7.125l11.281-4.633v11.758h7.424v10.45
			h-7.424v10.332c0.02,1.664,0.207,2.791,0.564,3.385c0.316,0.652,0.959,1.229,1.93,1.723c0.574,0.236,1.613,0.436,3.117,0.594
			c0.713-0.041,1.543-0.139,2.494-0.297c0.93-0.119,1.572-0.219,1.93-0.297l-3.354,11.43c-0.16,0-0.457,0-0.893,0
			c-0.436,0.039-0.971,0.061-1.604,0.061c-3.803,0-6.924-0.752-9.365-2.258c-4.305-2.453-6.459-6.324-6.459-11.607v-13.064H354.277z
			"/>
		<path stroke="#FFFFFF" stroke-miterlimit="10" d="M385.173,428.017c0-0.236,0-0.475,0-0.711c0-3.254,0.812-6.348,2.436-9.285
			c1.725-3.096,4.131-5.595,7.221-7.499c3.051-1.865,6.357-2.856,9.924-2.977c0.158,0,0.316,0,0.477,0
			c3.818,0,7.24,0.812,10.266,2.436c3.143,1.701,5.609,4.058,7.398,7.065c1.752,3.009,2.627,6.373,2.627,10.093v0.119
			c-0.039,3.445-0.896,6.602-2.566,9.473c-1.67,2.869-3.949,5.195-6.834,6.977s-5.998,2.799-9.34,3.057
			c-0.439,0.039-0.887,0.061-1.344,0.061c-3.109,0-6.109-0.711-9.004-2.133c-3.365-1.619-6.041-3.881-8.02-6.783
			C386.39,434.988,385.31,431.689,385.173,428.017z M396.693,427.185c0,2.389,0.869,4.438,2.607,6.148s3.803,2.566,6.193,2.566
			c2.471-0.08,4.555-0.977,6.254-2.688c1.66-1.67,2.49-3.719,2.49-6.146c0-2.547-0.869-4.676-2.607-6.386
			c-1.74-1.631-3.824-2.446-6.254-2.446c-0.061,0-0.109,0-0.148,0c-1.619,0.08-3.072,0.517-4.355,1.312
			c-1.305,0.816-2.312,1.912-3.023,3.283C397.078,424.222,396.693,425.675,396.693,427.185z"/>
		<path stroke="#FFFFFF" stroke-miterlimit="10" d="M430.884,446.945v-37.264l11.504-1.422v6.16
			c0.941-1.816,2.352-3.258,4.232-4.324c1.82-1.065,3.779-1.599,5.877-1.599c0.635,0,1.229,0.02,1.781,0.06
			c0.516,0.079,0.871,0.148,1.068,0.208l-3.682,11.58c-0.078-0.04-0.277-0.099-0.594-0.179c-0.316-0.04-0.752-0.06-1.307-0.06
			c-0.752,0-1.584,0.119-2.494,0.356c-1.662,0.477-2.752,1.368-3.266,2.674c-0.516,1.35-0.822,3.111-0.922,5.291
			c0.08,0.396,0.121,1.031,0.121,1.902v15.455L430.884,446.945z"/>
		<path stroke="#FFFFFF" stroke-miterlimit="10" d="M456.38,427.878c0-0.078,0-0.158,0-0.236c0-3.172,0.732-6.184,2.197-9.039
			c1.504-2.893,3.592-5.261,6.264-7.104c2.672-1.882,5.672-3.002,8.996-3.359c0.832-0.079,1.662-0.118,2.494-0.118
			c2.217,0,4.334,0.369,6.354,1.107c2.613,1.078,4.711,2.366,6.295,3.863c1.584,1.558,2.74,2.935,3.473,4.133
			s1.219,2.077,1.455,2.635l-23.395,14.556c0.314,0.393,1.068,0.873,2.256,1.441c0.971,0.49,2.365,0.734,4.188,0.734
			c0.256,0,0.523,0,0.801,0c1.307-0.117,2.613-0.461,3.92-1.029c1.307-0.549,2.424-1.156,3.354-1.822
			c0.93-0.627,1.396-0.98,1.396-1.059l5.85,8.896c-0.535,0.398-1.477,1.016-2.82,1.852c-1.348,0.816-3.129,1.652-5.346,2.508
			c-2.275,0.855-4.66,1.303-7.154,1.342c-0.1,0-0.188,0-0.268,0c-3.643,0-6.986-0.83-10.035-2.49c-3.166-1.66-5.66-3.969-7.48-6.924
			C457.349,434.812,456.419,431.517,456.38,427.878z M467.158,427.408l13.33-8.264c-0.277-0.215-0.791-0.46-1.543-0.734
			c-0.771-0.274-1.723-0.412-2.852-0.412c-2.514,0-4.621,0.941-6.324,2.823C468.029,422.742,467.158,424.937,467.158,427.408z"/>
		<path stroke="#FFFFFF" stroke-miterlimit="10" d="M190.177,436.689c-0.672,0.113-1.404,0.18-2.208,0.189
			c-2.415-0.039-4.414-0.834-5.997-2.387c-1.584-1.49-2.435-3.568-2.553-6.234c0-0.238,0-0.477,0-0.715
			c0-2.268,0.752-4.326,2.256-6.175c1.623-1.969,3.721-2.974,6.294-3.014c0.119,0,0.247,0,0.386,0c0.5,0,1.022,0.058,1.555,0.142
			c0.045-0.165,0.078-0.334,0.125-0.497c0.899-3.114,2.247-6.038,3.969-8.696c0.115-0.178,0.243-0.347,0.362-0.521
			c-0.142-0.043-0.269-0.096-0.415-0.135c-1.833-0.493-4.024-0.74-6.574-0.74c-3.8,0-7.177,0.893-10.131,2.678
			c-2.979,1.786-5.291,4.206-6.936,7.261c-1.685,3.096-2.527,6.408-2.527,9.939c0,3.635,0.842,6.951,2.527,9.953
			c1.685,3.041,4.075,5.41,7.171,7.107c3.035,1.66,6.492,2.488,10.372,2.488c0.079,0,0.158,0,0.237,0
			c2.562-0.09,4.81-0.49,6.752-1.195C192.81,443.289,191.22,440.109,190.177,436.689z"/>
		<circle cx="221.341" cy="427.11" r="12.349"/>
		<path stroke="#FFFFFF" stroke-miterlimit="10" d="M272.419,408.556c-0.554-0.04-1.148-0.06-1.781-0.06
			c-2.098,0-4.058,0.533-5.878,1.599c-1.881,1.066-3.291,2.507-4.232,4.324v-6.16l-11.503,1.422v1.209
			c2.713,4.775,4.27,10.293,4.27,16.178c0,5.885-1.557,11.402-4.27,16.178v3.699l12.321-1.16V430.33c0-0.873-0.04-1.506-0.121-1.902
			c0.101-2.18,0.408-3.943,0.923-5.291c0.515-1.307,1.603-2.199,3.266-2.675c0.91-0.237,1.742-0.356,2.494-0.356
			c0.554,0,0.989,0.02,1.306,0.06c0.316,0.08,0.515,0.139,0.594,0.179l3.682-11.58C273.29,408.704,272.934,408.635,272.419,408.556z
			"/>
	</g>
</g>
</svg>
